<!-- icon666.com - MILLIONS vector ICONS FREE --><svg viewBox="0 0 512 512" xmlns="http://www.w3.org/2000/svg" xmlns:xlink="http://www.w3.org/1999/xlink"><linearGradient id="linear-gradient" gradientUnits="userSpaceOnUse" x1="246.185" x2="-39.379" y1="605.094" y2="84.177"><stop offset="0" stop-color="#00ffa9"></stop><stop offset=".154" stop-color="#02eab3"></stop><stop offset=".4731" stop-color="#06b3ce"></stop><stop offset=".9265" stop-color="#0c5cf8"></stop><stop offset="1" stop-color="#0d4dff"></stop></linearGradient><linearGradient id="linear-gradient-2" x1="246.267" x2="-39.297" xlink:href="#linear-gradient" y1="605.049" y2="84.132"></linearGradient><linearGradient id="linear-gradient-3" x1="416" x2="130.437" xlink:href="#linear-gradient" y1="512.003" y2="-8.914"></linearGradient><linearGradient id="linear-gradient-4" x1="454.25" x2="168.686" xlink:href="#linear-gradient" y1="491.034" y2="-29.883"></linearGradient><linearGradient id="linear-gradient-5" x1="476.632" x2="191.069" xlink:href="#linear-gradient" y1="478.765" y2="-42.152"></linearGradient><linearGradient id="linear-gradient-6" x1="458.249" x2="172.686" xlink:href="#linear-gradient" y1="488.842" y2="-32.075"></linearGradient><linearGradient id="linear-gradient-7" x1="413.315" x2="127.752" xlink:href="#linear-gradient" y1="513.474" y2="-7.443"></linearGradient><linearGradient id="linear-gradient-8" x1="461.903" x2="176.34" xlink:href="#linear-gradient" y1="486.839" y2="-34.078"></linearGradient><linearGradient id="linear-gradient-9" x1="354.263" x2="68.7" xlink:href="#linear-gradient" y1="545.846" y2="24.929"></linearGradient><linearGradient id="linear-gradient-10" x1="401.891" x2="116.328" xlink:href="#linear-gradient" y1="519.737" y2="-1.18"></linearGradient><g id="_32_WIP" data-name="32 WIP"><path d="m32.4946 204.7867a6 6 0 0 0 -6 6v9a6 6 0 0 0 12 0v-9a6 6 0 0 0 -6-6z" fill="url(#linear-gradient)"></path><path d="m175.313 352.3307h-59.3711a6 6 0 0 0 -6 6v120.6284a28.1058 28.1058 0 0 0 28.0742 28.0737h15.2231a28.1054 28.1054 0 0 0 28.0738-28.0737v-120.6284a6 6 0 0 0 -6-6zm-6 126.6284a16.0917 16.0917 0 0 1 -16.0738 16.0737h-15.2231a16.092 16.092 0 0 1 -16.0742-16.0737v-114.6284h47.3711z" fill="url(#linear-gradient-2)"></path><path d="m396.0537 352.3307h-59.3711a6 6 0 0 0 -6 6v120.6284a28.1058 28.1058 0 0 0 28.0742 28.0737h15.2232a28.1054 28.1054 0 0 0 28.0738-28.0737v-120.6284a6 6 0 0 0 -6.0001-6zm-6 126.6284a16.0917 16.0917 0 0 1 -16.0737 16.0737h-15.2232a16.092 16.092 0 0 1 -16.0742-16.0737v-114.6284h47.3711z" fill="url(#linear-gradient-3)"></path><path d="m198.8042 154.7389h114.3872a25.35 25.35 0 0 0 21.9546-38.0244l-57.1939-99.0718a25.35 25.35 0 0 0 -43.9087 0v-.0005l-57.1934 99.0728a25.35 25.35 0 0 0 21.9546 38.0239zm-11.562-32.0244 57.1938-99.0723a13.35 13.35 0 0 1 23.1235 0l57.1939 99.0718a13.35 13.35 0 0 1 -11.562 20.0249h-114.3872a13.35 13.35 0 0 1 -11.562-20.0244z" fill="url(#linear-gradient-4)"></path><path d="m255.998 103.6139a6 6 0 0 0 6-6v-42.647a6 6 0 0 0 -12 0v42.647a6 6 0 0 0 6 6z" fill="url(#linear-gradient-5)"></path><path d="m255.998 126.7911a6 6 0 0 0 6-6v-1.7793a6 6 0 0 0 -12 0v1.7793a6 6 0 0 0 6 6z" fill="url(#linear-gradient-6)"></path><path d="m270.854 197.6a6 6 0 0 0 -6 6v100a6 6 0 0 0 12 0v-100a6 6 0 0 0 -6-6z" fill="url(#linear-gradient-7)"></path><path d="m373.3486 231.2618a33.7 33.7 0 0 0 -33.6616-33.6618h-27.6616a6 6 0 0 0 -6 6v100a6 6 0 0 0 12 0v-38.676h21.6616a33.7 33.7 0 0 0 33.6616-33.6622zm-55.3232-21.6618h21.6616a21.6619 21.6619 0 0 1 0 43.3238h-21.6616z" fill="url(#linear-gradient-8)"></path><path d="m230.5634 197.652a6.003 6.003 0 0 0 -6.7348 5.1616l-10.9942 83.127-17.4306-39.6906a9.0215 9.0215 0 0 0 -8.2593-5.3925h-.0093a9.0193 9.0193 0 0 0 -8.2563 5.4086l-17.3 39.5962-10.9839-83.0483a6 6 0 0 0 -11.8965 1.5732l13.0342 98.5494a7.644 7.644 0 0 0 14.5825 2.0586l20.8364-47.6915 20.96 47.7271a7.563 7.563 0 0 0 6.9624 4.5723 7.8849 7.8849 0 0 0 1.1118-.0791 7.5742 7.5742 0 0 0 6.5024-6.566l13.0367-98.5708a6 6 0 0 0 -5.1615-6.7352z" fill="url(#linear-gradient-9)"></path><path d="m434.0444 142.8668h-356.1a51.4128 51.4128 0 0 0 -51.3716 48.7051 6 6 0 0 0 11.9834.63 39.4151 39.4151 0 0 1 39.3882-37.335h356.1a39.4949 39.4949 0 0 1 39.45 39.45v118.56a39.4949 39.4949 0 0 1 -39.45 39.45h-356.1a39.4948 39.4948 0 0 1 -39.45-39.45v-74.19a6 6 0 0 0 -12 0v74.19a51.5082 51.5082 0 0 0 51.45 51.45h356.1a51.5086 51.5086 0 0 0 51.45-51.45v-118.5599a51.5086 51.5086 0 0 0 -51.45-51.4502z" fill="url(#linear-gradient-10)"></path></g></svg>